# xmcd
#
# Track frame offsets:
#	150
#	5048
#	5530
#	6070
#	25178
#	42527
#	61117
#	71399
#	86748
#	97902
#	117596
#	137632
#	156779
#	173397
#	187826
#	199034
#	215521
#	235486
#	244345
#	263539
#	279939
#	293519
#	306851
#
# Disc length: 4318 seconds
#
# Revision: 0
# Processed by: cddbd v1.5.2PL0 Copyright (c) Steve Scherf et al.
# Submitted via: EasyCDDAExtractor 10.2.0.1
#
DISCID=3010dc17
DTITLE=Various Artist - Crossroads Nov.2003
DYEAR=2003
DGENRE=Gospel
TTITLE0=Phil Cross - Patriotic intro
TTITLE1=Phil Cross - Short intro
TTITLE2=Phil Cross - Short intro
TTITLE3=Carolina Boys - The Land Of The Free
TTITLE4=Kirk Talley - The Road You're Taking
TTITLE5=Ivan Parker - I Can Only Imagine
TTITLE6=Dove Brothers - In The Prayer Room
TTITLE7=Tim and Mary Alice Lovelace - Someone To Care
TTITLE8=Dixie Echoes - What's That Over The River
TTITLE9=Calvary Construction Company - You Had Your Hand On Me
TTITLE10=The Isaacs - I Surrender All
TTITLE11=Amy Lambert - Lord Send Your Angels
TTITLE12=Three Bridges - I'm A Soldier
TTITLE13=Jody Brown Indian Family - Life Is Good
TTITLE14=The Trio - He's So Good To Me
TTITLE15=The Inspirations - Looking To Live
TTITLE16=Gospel Enforcers - Tell Me Again
TTITLE17=The McKameys - Anytime
TTITLE18=Kingdom Heirs - He Had To Rise
TTITLE19=Talley Trio - Jesus Saves
TTITLE20=Mark Bishop - God Just Answered Another Prayer
TTITLE21=Doyle Lawson - Saviors Love
TTITLE22=Down East Boys - I Remember The Time
EXTD=
EXTT0=
EXTT1=
EXTT2=
EXTT3=
EXTT4=
EXTT5=
EXTT6=
EXTT7=
EXTT8=
EXTT9=
EXTT10=
EXTT11=
EXTT12=
EXTT13=
EXTT14=
EXTT15=
EXTT16=
EXTT17=
EXTT18=
EXTT19=
EXTT20=
EXTT21=
EXTT22=
PLAYORDER=
